# Blender v2.81 (sub 16) OBJ File: 'Cashbox.blend'
# www.blender.org
mtllib Cashbox.mtl
o Куб.005_Куб.024
v -6.374570 0.050507 2.376220
v -6.374570 2.000000 2.376220
v -6.374570 0.050507 -2.658481
v -6.374570 2.000000 -2.658481
v -4.834376 0.050507 2.376220
v -4.834376 2.000000 2.376220
v -4.834376 0.050507 -2.658481
v -4.834376 2.000000 -2.658481
v -6.374570 0.050507 3.470849
v -6.374570 2.000000 3.470849
v -7.611833 0.050507 2.376220
v -7.611833 2.000000 2.376220
v -7.611833 0.050507 3.470849
v -7.611833 2.000000 3.470849
v -5.297016 2.000000 3.470849
v -4.834376 2.000000 3.008209
v -5.065696 2.000000 3.408866
v -4.896358 2.000000 3.239529
v -4.834376 0.050507 3.008209
v -5.297016 0.050507 3.470849
v -4.896358 0.050507 3.239529
v -5.065696 0.050507 3.408866
vn -1.0000 0.0000 0.0000
vn 0.0000 0.0000 -1.0000
vn 1.0000 0.0000 0.0000
vn 0.0000 -1.0000 0.0000
vn 0.0000 1.0000 0.0000
vn 0.0000 0.0000 1.0000
vn 0.2588 0.0000 0.9659
vn 0.7071 0.0000 0.7071
vn 0.9659 0.0000 0.2588
usemtl Материал.007
s off
f 1//1 2//1 4//1 3//1
f 3//2 4//2 8//2 7//2
f 7//3 8//3 6//3 5//3
f 1//4 9//4 13//4 11//4
f 3//4 7//4 5//4 1//4
f 8//5 4//5 2//5 6//5
f 6//5 2//5 10//5 15//5 17//5 18//5 16//5
f 1//4 5//4 19//4 21//4 22//4 20//4 9//4
f 20//6 15//6 10//6 9//6
f 12//1 11//1 13//1 14//1
f 2//2 1//2 11//2 12//2
f 9//6 10//6 14//6 13//6
f 10//5 2//5 12//5 14//5
f 15//7 20//7 22//7 17//7
f 17//8 22//8 21//8 18//8
f 18//9 21//9 19//9 16//9
f 5//3 6//3 16//3 19//3
o Куб.004_Куб.023
v -6.477656 1.944553 2.302238
v -6.477656 1.944553 -2.787480
v -4.755649 1.944553 2.302238
v -4.755649 1.944553 -2.787480
v -6.477657 1.944553 3.573279
v -7.708290 1.944553 2.302238
v -7.708290 1.944553 3.573279
v -5.254940 1.944553 3.573279
v -4.755649 1.944553 3.006716
v -5.005294 1.944553 3.439114
v -4.822542 1.944553 3.256361
v -6.477656 2.090232 2.302238
v -6.477656 2.090232 -2.787480
v -4.755649 2.090232 -2.787480
v -6.477656 2.090232 3.573279
v -7.708290 2.090232 3.573279
v -7.708290 2.090232 2.302238
v -5.005294 2.090232 3.439114
v -5.254940 2.090232 3.573279
v -4.822542 2.090232 3.256361
v -4.755649 2.090232 3.006716
v -4.755649 2.090232 2.302237
vn 0.0000 1.0000 0.0000
vn 0.0000 0.0000 1.0000
vn 0.7071 0.0000 0.7071
vn 0.0000 0.0000 -1.0000
vn 0.9659 0.0000 0.2588
vn -1.0000 0.0000 0.0000
vn 0.4734 0.0000 0.8809
vn 1.0000 -0.0000 0.0000
vn 0.0000 -1.0000 -0.0000
usemtl Материал.006
s off
f 34//10 39//10 38//10 37//10
f 29//11 27//11 37//11 38//11
f 37//11 27//11 30//11 41//11
f 32//12 33//12 42//12 40//12
f 23//13 28//13 39//13 34//13
f 33//14 31//14 43//14 42//14
f 24//15 23//15 34//15 35//15
f 37//10 41//10 40//10 42//10 43//10 44//10 34//10
f 26//13 24//13 35//13 36//13
f 30//16 32//16 40//16 41//16
f 28//15 29//15 38//15 39//15
f 34//10 44//10 36//10 35//10
f 25//17 44//17 43//17 31//17
f 26//17 36//17 44//17 25//17
f 29//18 28//18 23//18 25//18 31//18 33//18 32//18 30//18 27//18
f 25//18 23//18 24//18 26//18
o Куб.007_Куб.020
v 2.969265 2.089015 1.859564
v 2.969265 2.140788 1.784116
v 2.969265 2.089015 0.981646
v 2.969265 2.140788 1.057094
v 3.853031 2.089015 1.859564
v 3.821789 2.830232 1.859564
v 3.853031 2.089015 0.981646
v 3.821789 2.830232 0.981646
v 2.969265 2.403970 1.859564
v 2.969265 2.403970 0.981646
v 3.395527 2.089015 0.981646
v 3.395527 2.830232 0.981646
v 3.395527 2.089015 1.859564
v 3.395527 2.830232 1.859564
v 3.368980 2.579247 1.859564
v 3.368980 2.579247 0.981646
v 2.969265 2.352197 1.057094
v 2.969265 2.352197 1.784116
v 2.906317 2.140788 1.784116
v 2.906317 2.352197 1.784116
v 2.906317 2.140788 1.057094
v 2.906317 2.352197 1.057094
v 3.547399 2.830232 1.103293
v 3.669917 2.830232 1.103293
v 3.669917 2.830232 1.737917
v 3.547399 2.830232 1.737917
v 3.562269 2.967693 1.142653
v 3.655047 2.967693 1.142653
v 3.655047 2.967693 1.698557
v 3.562269 2.967693 1.698557
v 2.980650 2.352197 1.718491
v 2.980650 2.352197 1.122719
v 2.969265 2.352197 1.122719
v 2.969265 2.352197 1.718491
v 2.980650 2.214303 1.718491
v 2.980650 2.214303 1.122719
v 2.969265 2.214303 1.718491
v 2.969265 2.214303 1.122719
v 3.112789 2.214303 1.718491
v 3.112789 2.214303 1.122719
v 3.112789 2.352197 1.718491
v 3.112789 2.352197 1.122719
v 3.368980 2.608368 1.802584
v 3.368980 2.608368 1.038626
v 3.395527 2.801110 1.038626
v 3.395527 2.801110 1.802584
v 3.409745 2.602754 1.802584
v 3.409745 2.602754 1.038626
v 3.436292 2.795496 1.038626
v 3.436292 2.795496 1.802584
vn -0.9942 0.1075 0.0000
vn 0.0000 1.0000 0.0000
vn 0.9942 0.1075 0.0000
vn 0.0000 0.2753 0.9614
vn 0.0000 0.2753 -0.9614
vn 0.0000 -1.0000 0.0000
vn 0.9991 0.0421 0.0000
vn -0.9929 0.1188 0.0000
vn 0.0000 0.0000 1.0000
vn 0.0000 0.0000 -1.0000
vn -0.4016 0.9158 0.0000
vn -1.0000 0.0000 0.0000
vn 0.1364 0.9906 0.0000
vn -0.1364 -0.9906 0.0000
vn 1.0000 0.0000 0.0000
vn -0.9906 0.1364 0.0000
usemtl Материал
s off
f 67//19 70//19 74//19 71//19
f 72//20 71//20 74//20 73//20
f 69//21 68//21 72//21 73//21
f 70//22 69//22 73//22 74//22
f 68//23 67//23 71//23 72//23
f 78//24 77//24 86//24 85//24
usemtl Материал.003
f 49//25 51//25 52//25 50//25
f 59//26 58//26 90//26 87//26
f 55//24 51//24 49//24 57//24
f 57//27 59//27 53//27 45//27
f 47//28 54//28 60//28 55//28
f 55//28 60//28 56//28 52//28 51//28
f 52//20 56//20 67//20 68//20
f 47//24 55//24 57//24 45//24
f 60//29 54//29 53//29 59//29
f 58//20 50//20 69//20 70//20
f 50//20 52//20 68//20 69//20
f 56//20 58//20 70//20 67//20
f 87//28 90//28 94//28 91//28
f 58//30 56//30 89//30 90//30
f 60//30 59//30 87//30 88//30
f 56//26 60//26 88//26 89//26
f 88//31 87//31 91//31 92//31
f 89//27 88//27 92//27 93//27
f 90//32 89//32 93//32 94//32
f 49//27 50//27 58//27 59//27 57//27
usemtl Материал.001
f 61//28 48//28 65//28 66//28
f 63//30 64//30 66//30 65//30
f 62//20 78//20 75//20 64//20
f 46//27 62//27 64//27 63//27
f 48//24 46//24 63//24 65//24
f 66//20 64//20 75//20 76//20
f 75//27 78//27 81//27 79//27
f 76//20 77//20 61//20 66//20
f 77//28 76//28 80//28 82//28
f 76//33 75//33 79//33 80//33
f 85//30 86//30 84//30 83//30
f 77//27 82//27 84//27 86//27
f 81//28 78//28 85//28 83//28
usemtl Материал.002
f 45//30 53//30 62//30 46//30
f 54//30 47//30 48//30 61//30
f 53//30 54//30 61//30 77//30 78//30 62//30
f 47//30 45//30 46//30 48//30
f 79//24 81//24 82//24 80//24
f 82//20 81//20 83//20 84//20
usemtl Материал.004
f 91//34 94//34 93//34 92//34
o Куб.006_Куб.019
v 2.522344 1.944553 2.302238
v 2.522344 1.944553 -2.787480
v 4.244351 1.944553 2.302238
v 4.244351 1.944553 -2.787480
v 2.522343 1.944553 3.573279
v 1.291710 1.944553 2.302238
v 1.291710 1.944553 3.573279
v 3.745060 1.944553 3.573279
v 4.244351 1.944553 3.006716
v 3.994705 1.944553 3.439114
v 4.177458 1.944553 3.256361
v 2.522344 2.090232 2.302238
v 2.522344 2.090232 -2.787480
v 4.244351 2.090232 -2.787480
v 2.522343 2.090232 3.573279
v 1.291710 2.090232 3.573279
v 1.291710 2.090232 2.302238
v 3.994705 2.090232 3.439114
v 3.745060 2.090232 3.573279
v 4.177458 2.090232 3.256361
v 4.244351 2.090232 3.006716
v 4.244351 2.090232 2.302237
vn 0.0000 1.0000 0.0000
vn 0.0000 0.0000 1.0000
vn 0.7071 0.0000 0.7071
vn 0.0000 0.0000 -1.0000
vn 0.9659 0.0000 0.2588
vn -1.0000 0.0000 0.0000
vn 0.4734 0.0000 0.8809
vn 1.0000 -0.0000 0.0000
vn 0.0000 -1.0000 -0.0000
usemtl Материал.006
s off
f 106//35 111//35 110//35 109//35
f 101//36 99//36 109//36 110//36
f 109//36 99//36 102//36 113//36
f 104//37 105//37 114//37 112//37
f 95//38 100//38 111//38 106//38
f 105//39 103//39 115//39 114//39
f 96//40 95//40 106//40 107//40
f 109//35 113//35 112//35 114//35 115//35 116//35 106//35
f 98//38 96//38 107//38 108//38
f 102//41 104//41 112//41 113//41
f 100//40 101//40 110//40 111//40
f 106//35 116//35 108//35 107//35
f 97//42 116//42 115//42 103//42
f 98//42 108//42 116//42 97//42
f 101//43 100//43 95//43 97//43 103//43 105//43 104//43 102//43 99//43
f 97//43 95//43 96//43 98//43
o Куб.002_Куб.018
v 2.625430 0.050507 2.376220
v 2.625430 2.000000 2.376220
v 2.625430 0.050507 -2.658481
v 2.625430 2.000000 -2.658481
v 4.165624 0.050507 2.376220
v 4.165624 2.000000 2.376220
v 4.165624 0.050507 -2.658481
v 4.165624 2.000000 -2.658481
v 2.625430 0.050507 3.470849
v 2.625430 2.000000 3.470849
v 1.388167 0.050507 2.376220
v 1.388167 2.000000 2.376220
v 1.388167 0.050507 3.470849
v 1.388167 2.000000 3.470849
v 3.702984 2.000000 3.470849
v 4.165624 2.000000 3.008209
v 3.934304 2.000000 3.408866
v 4.103642 2.000000 3.239529
v 4.165624 0.050507 3.008209
v 3.702984 0.050507 3.470849
v 4.103642 0.050507 3.239529
v 3.934304 0.050507 3.408866
vn -1.0000 0.0000 0.0000
vn 0.0000 0.0000 -1.0000
vn 1.0000 0.0000 0.0000
vn 0.0000 -1.0000 0.0000
vn 0.0000 1.0000 0.0000
vn 0.0000 0.0000 1.0000
vn 0.2588 0.0000 0.9659
vn 0.7071 0.0000 0.7071
vn 0.9659 0.0000 0.2588
usemtl Материал.007
s off
f 117//44 118//44 120//44 119//44
f 119//45 120//45 124//45 123//45
f 123//46 124//46 122//46 121//46
f 117//47 125//47 129//47 127//47
f 119//47 123//47 121//47 117//47
f 124//48 120//48 118//48 122//48
f 122//48 118//48 126//48 131//48 133//48 134//48 132//48
f 117//47 121//47 135//47 137//47 138//47 136//47 125//47
f 136//49 131//49 126//49 125//49
f 128//44 127//44 129//44 130//44
f 118//45 117//45 127//45 128//45
f 125//49 126//49 130//49 129//49
f 126//48 118//48 128//48 130//48
f 131//50 136//50 138//50 133//50
f 133//51 138//51 137//51 134//51
f 134//52 137//52 135//52 132//52
f 121//46 122//46 132//46 135//46
o Куб.000_Куб.017
v 3.144845 2.511540 1.136660
v 3.063462 2.476316 1.180999
v 3.063462 2.476316 1.136660
v 3.144845 2.511540 1.180999
v 3.144845 2.511540 1.047982
v 3.063462 2.476316 1.269676
v 3.063462 2.476316 1.047982
v 3.144845 2.511540 1.269676
v 3.081074 2.435625 1.180999
v 3.162456 2.470849 1.180999
v 3.162456 2.470849 1.269676
v 3.081074 2.435625 1.269676
v 3.081074 2.435625 1.047982
v 3.162456 2.470849 1.047982
v 3.162456 2.470849 1.136660
v 3.081074 2.435625 1.136660
v 3.266918 2.564375 1.136660
v 3.185535 2.529151 1.180999
v 3.185535 2.529151 1.136660
v 3.266918 2.564375 1.180999
v 3.266918 2.564375 1.047982
v 3.185535 2.529151 1.269676
v 3.185535 2.529151 1.047982
v 3.266918 2.564375 1.269676
v 3.203147 2.488460 1.180999
v 3.284530 2.523684 1.180999
v 3.284530 2.523684 1.269676
v 3.203147 2.488460 1.269676
v 3.203147 2.488460 1.047982
v 3.284530 2.523684 1.047982
v 3.284530 2.523684 1.136660
v 3.203147 2.488460 1.136660
v 3.144845 2.511540 1.402693
v 3.063462 2.476316 1.447032
v 3.063462 2.476316 1.402693
v 3.144845 2.511540 1.447032
v 3.144845 2.511540 1.314015
v 3.063462 2.476316 1.535710
v 3.063462 2.476316 1.314015
v 3.144845 2.511540 1.535710
v 3.081074 2.435625 1.447032
v 3.162456 2.470849 1.447032
v 3.162456 2.470849 1.535710
v 3.081074 2.435625 1.535710
v 3.081074 2.435625 1.314015
v 3.162456 2.470849 1.314015
v 3.162456 2.470849 1.402693
v 3.081074 2.435625 1.402693
v 3.266918 2.564375 1.402693
v 3.185535 2.529151 1.447032
v 3.185535 2.529151 1.402693
v 3.266918 2.564375 1.447032
v 3.266918 2.564375 1.314015
v 3.185535 2.529151 1.535710
v 3.185535 2.529151 1.314015
v 3.266918 2.564375 1.535710
v 3.203147 2.488460 1.447032
v 3.284530 2.523684 1.447032
v 3.284530 2.523684 1.535710
v 3.203147 2.488460 1.535710
v 3.203147 2.488460 1.314015
v 3.284530 2.523684 1.314015
v 3.284530 2.523684 1.402693
v 3.203147 2.488460 1.402693
v 3.081236 2.429354 1.805960
v 3.063624 2.470045 1.805960
v 3.063624 2.470045 1.656951
v 3.081236 2.429354 1.656951
v 3.238034 2.545533 1.656951
v 3.238034 2.545533 1.805960
v 3.255646 2.504842 1.656951
v 3.255646 2.504842 1.805960
vn 0.0000 0.0000 -1.0000
vn 0.9177 0.3972 0.0000
vn 0.0000 0.0000 1.0000
vn -0.9177 -0.3972 0.0000
vn -0.3972 0.9177 0.0000
vn 0.3972 -0.9177 0.0000
usemtl Материал.005
s off
f 147//53 140//53 142//53 148//53
f 148//54 142//54 146//54 149//54
f 149//55 146//55 144//55 150//55
f 150//56 144//56 140//56 147//56
f 139//57 143//57 145//57 141//57
f 146//57 142//57 140//57 144//57
f 154//56 141//56 145//56 151//56
f 153//55 139//55 141//55 154//55
f 152//54 143//54 139//54 153//54
f 151//53 145//53 143//53 152//53
f 163//53 156//53 158//53 164//53
f 164//54 158//54 162//54 165//54
f 165//55 162//55 160//55 166//55
f 166//56 160//56 156//56 163//56
f 155//57 159//57 161//57 157//57
f 162//57 158//57 156//57 160//57
f 170//56 157//56 161//56 167//56
f 169//55 155//55 157//55 170//55
f 168//54 159//54 155//54 169//54
f 167//53 161//53 159//53 168//53
f 179//53 172//53 174//53 180//53
f 180//54 174//54 178//54 181//54
f 181//55 178//55 176//55 182//55
f 182//56 176//56 172//56 179//56
f 171//57 175//57 177//57 173//57
f 178//57 174//57 172//57 176//57
f 186//56 173//56 177//56 183//56
f 185//55 171//55 173//55 186//55
f 184//54 175//54 171//54 185//54
f 183//53 177//53 175//53 184//53
f 195//53 188//53 190//53 196//53
f 196//54 190//54 194//54 197//54
f 197//55 194//55 192//55 198//55
f 198//56 192//56 188//56 195//56
f 187//57 191//57 193//57 189//57
f 194//57 190//57 188//57 192//57
f 202//56 189//56 193//56 199//56
f 201//55 187//55 189//55 202//55
f 200//54 191//54 187//54 201//54
f 199//53 193//53 191//53 200//53
f 210//55 208//55 204//55 203//55
f 207//53 209//53 206//53 205//53
f 208//57 207//57 205//57 204//57
f 203//56 204//56 205//56 206//56
f 209//58 210//58 203//58 206//58
f 209//54 207//54 208//54 210//54
o Куб.001_Куб.016
v -5.855155 2.511540 1.136660
v -5.936538 2.476316 1.180999
v -5.936538 2.476316 1.136660
v -5.855155 2.511540 1.180999
v -5.855155 2.511540 1.047982
v -5.936538 2.476316 1.269676
v -5.936538 2.476316 1.047982
v -5.855155 2.511540 1.269676
v -5.918926 2.435625 1.180999
v -5.837543 2.470849 1.180999
v -5.837543 2.470849 1.269676
v -5.918926 2.435625 1.269676
v -5.918926 2.435625 1.047982
v -5.837543 2.470849 1.047982
v -5.837543 2.470849 1.136660
v -5.918926 2.435625 1.136660
v -5.733082 2.564375 1.136660
v -5.814465 2.529151 1.180999
v -5.814465 2.529151 1.136660
v -5.733082 2.564375 1.180999
v -5.733082 2.564375 1.047982
v -5.814465 2.529151 1.269676
v -5.814465 2.529151 1.047982
v -5.733082 2.564375 1.269676
v -5.796853 2.488460 1.180999
v -5.715470 2.523684 1.180999
v -5.715470 2.523684 1.269676
v -5.796853 2.488460 1.269676
v -5.796853 2.488460 1.047982
v -5.715470 2.523684 1.047982
v -5.715470 2.523684 1.136660
v -5.796853 2.488460 1.136660
v -5.855155 2.511540 1.402693
v -5.936538 2.476316 1.447032
v -5.936538 2.476316 1.402693
v -5.855155 2.511540 1.447032
v -5.855155 2.511540 1.314015
v -5.936538 2.476316 1.535710
v -5.936538 2.476316 1.314015
v -5.855155 2.511540 1.535710
v -5.918926 2.435625 1.447032
v -5.837543 2.470849 1.447032
v -5.837543 2.470849 1.535710
v -5.918926 2.435625 1.535710
v -5.918926 2.435625 1.314015
v -5.837543 2.470849 1.314015
v -5.837543 2.470849 1.402693
v -5.918926 2.435625 1.402693
v -5.733082 2.564375 1.402693
v -5.814465 2.529151 1.447032
v -5.814465 2.529151 1.402693
v -5.733082 2.564375 1.447032
v -5.733082 2.564375 1.314015
v -5.814465 2.529151 1.535710
v -5.814465 2.529151 1.314015
v -5.733082 2.564375 1.535710
v -5.796853 2.488460 1.447032
v -5.715470 2.523684 1.447032
v -5.715470 2.523684 1.535710
v -5.796853 2.488460 1.535710
v -5.796853 2.488460 1.314015
v -5.715470 2.523684 1.314015
v -5.715470 2.523684 1.402693
v -5.796853 2.488460 1.402693
v -5.918764 2.429354 1.805960
v -5.936376 2.470045 1.805960
v -5.936376 2.470045 1.656951
v -5.918764 2.429354 1.656951
v -5.761966 2.545533 1.656951
v -5.761966 2.545533 1.805960
v -5.744354 2.504842 1.656951
v -5.744354 2.504842 1.805960
vn 0.0000 0.0000 -1.0000
vn 0.9177 0.3972 0.0000
vn 0.0000 0.0000 1.0000
vn -0.9177 -0.3972 0.0000
vn -0.3972 0.9177 0.0000
vn 0.3972 -0.9177 0.0000
usemtl Материал.005
s off
f 219//59 212//59 214//59 220//59
f 220//60 214//60 218//60 221//60
f 221//61 218//61 216//61 222//61
f 222//62 216//62 212//62 219//62
f 211//63 215//63 217//63 213//63
f 218//63 214//63 212//63 216//63
f 226//62 213//62 217//62 223//62
f 225//61 211//61 213//61 226//61
f 224//60 215//60 211//60 225//60
f 223//59 217//59 215//59 224//59
f 235//59 228//59 230//59 236//59
f 236//60 230//60 234//60 237//60
f 237//61 234//61 232//61 238//61
f 238//62 232//62 228//62 235//62
f 227//63 231//63 233//63 229//63
f 234//63 230//63 228//63 232//63
f 242//62 229//62 233//62 239//62
f 241//61 227//61 229//61 242//61
f 240//60 231//60 227//60 241//60
f 239//59 233//59 231//59 240//59
f 251//59 244//59 246//59 252//59
f 252//60 246//60 250//60 253//60
f 253//61 250//61 248//61 254//61
f 254//62 248//62 244//62 251//62
f 243//63 247//63 249//63 245//63
f 250//63 246//63 244//63 248//63
f 258//62 245//62 249//62 255//62
f 257//61 243//61 245//61 258//61
f 256//60 247//60 243//60 257//60
f 255//59 249//59 247//59 256//59
f 267//59 260//59 262//59 268//59
f 268//60 262//60 266//60 269//60
f 269//61 266//61 264//61 270//61
f 270//62 264//62 260//62 267//62
f 259//63 263//63 265//63 261//63
f 266//63 262//63 260//63 264//63
f 274//62 261//62 265//62 271//62
f 273//61 259//61 261//61 274//61
f 272//60 263//60 259//60 273//60
f 271//59 265//59 263//59 272//59
f 282//61 280//61 276//61 275//61
f 279//59 281//59 278//59 277//59
f 280//63 279//63 277//63 276//63
f 275//62 276//62 277//62 278//62
f 281//64 282//64 275//64 278//64
f 281//60 279//60 280//60 282//60
o Куб.003
v -6.030735 2.089015 1.859564
v -6.030735 2.140788 1.784116
v -6.030735 2.089015 0.981646
v -6.030735 2.140788 1.057094
v -5.146969 2.089015 1.859564
v -5.178211 2.830232 1.859564
v -5.146969 2.089015 0.981646
v -5.178211 2.830232 0.981646
v -6.030735 2.403970 1.859564
v -6.030735 2.403970 0.981646
v -5.604473 2.089015 0.981646
v -5.604473 2.830232 0.981646
v -5.604473 2.089015 1.859564
v -5.604473 2.830232 1.859564
v -5.631020 2.579247 1.859564
v -5.631020 2.579247 0.981646
v -6.030735 2.352197 1.057094
v -6.030735 2.352197 1.784116
v -6.525167 2.140788 1.784116
v -6.525167 2.352197 1.784116
v -6.525167 2.140788 1.057094
v -6.525167 2.352197 1.057094
v -5.452601 2.830232 1.103293
v -5.330083 2.830232 1.103293
v -5.330083 2.830232 1.737917
v -5.452601 2.830232 1.737917
v -5.437731 2.967693 1.142653
v -5.344953 2.967693 1.142653
v -5.344953 2.967693 1.698557
v -5.437731 2.967693 1.698557
v -6.450833 2.352197 1.718491
v -6.450833 2.352197 1.122719
v -6.030735 2.352197 1.122719
v -6.030735 2.352197 1.718491
v -6.450833 2.214303 1.718491
v -6.450833 2.214303 1.122719
v -6.030735 2.214303 1.718491
v -6.030735 2.214303 1.122719
v -5.887211 2.214303 1.718491
v -5.887211 2.214303 1.122719
v -5.887211 2.352197 1.718491
v -5.887211 2.352197 1.122719
v -5.631020 2.608368 1.802584
v -5.631020 2.608368 1.038626
v -5.604473 2.801110 1.038626
v -5.604473 2.801110 1.802584
v -5.590255 2.602754 1.802584
v -5.590255 2.602754 1.038626
v -5.563708 2.795496 1.038626
v -5.563708 2.795496 1.802584
vn -0.9942 0.1075 0.0000
vn 0.0000 1.0000 0.0000
vn 0.9942 0.1075 0.0000
vn 0.0000 0.2753 0.9614
vn 0.0000 0.2753 -0.9614
vn 0.0000 -1.0000 0.0000
vn 0.9991 0.0421 0.0000
vn -0.9929 0.1188 0.0000
vn 0.0000 0.0000 1.0000
vn 0.0000 0.0000 -1.0000
vn -0.4016 0.9158 0.0000
vn -1.0000 0.0000 0.0000
vn 0.1364 0.9906 0.0000
vn -0.1364 -0.9906 0.0000
vn 1.0000 0.0000 0.0000
vn -0.9906 0.1364 0.0000
usemtl Материал
s off
f 305//65 308//65 312//65 309//65
f 310//66 309//66 312//66 311//66
f 307//67 306//67 310//67 311//67
f 308//68 307//68 311//68 312//68
f 306//69 305//69 309//69 310//69
f 316//70 315//70 324//70 323//70
usemtl Материал.003
f 287//71 289//71 290//71 288//71
f 297//72 296//72 328//72 325//72
f 293//70 289//70 287//70 295//70
f 295//73 297//73 291//73 283//73
f 285//74 292//74 298//74 293//74
f 293//74 298//74 294//74 290//74 289//74
f 290//66 294//66 305//66 306//66
f 285//70 293//70 295//70 283//70
f 298//75 292//75 291//75 297//75
f 296//66 288//66 307//66 308//66
f 288//66 290//66 306//66 307//66
f 294//66 296//66 308//66 305//66
f 325//74 328//74 332//74 329//74
f 296//76 294//76 327//76 328//76
f 298//76 297//76 325//76 326//76
f 294//72 298//72 326//72 327//72
f 326//77 325//77 329//77 330//77
f 327//73 326//73 330//73 331//73
f 328//78 327//78 331//78 332//78
f 287//73 288//73 296//73 297//73 295//73
usemtl Материал.001
f 299//74 286//74 303//74 304//74
f 301//76 302//76 304//76 303//76
f 300//66 316//66 313//66 302//66
f 284//73 300//73 302//73 301//73
f 286//70 284//70 301//70 303//70
f 304//66 302//66 313//66 314//66
f 313//74 316//74 319//74 317//74
f 314//66 315//66 299//66 304//66
f 315//73 314//73 318//73 320//73
f 314//79 313//79 317//79 318//79
f 323//76 324//76 322//76 321//76
f 315//73 320//73 322//73 324//73
f 319//74 316//74 323//74 321//74
usemtl Материал.002
f 283//76 291//76 300//76 284//76
f 292//76 285//76 286//76 299//76
f 291//76 292//76 299//76 315//76 316//76 300//76
f 285//76 283//76 284//76 286//76
f 317//66 319//66 320//66 318//66
f 320//66 319//66 321//66 322//66
usemtl Материал.004
f 329//80 332//80 331//80 330//80
