# Blender v2.81 (sub 16) OBJ File: 'квартира.blend'
# www.blender.org
mtllib квартира.mtl
o Cube.027_Cube.029
v -15.359776 5.402320 15.397766
v -15.359776 5.761099 15.397766
v -15.359776 5.402320 -15.383884
v -15.359776 5.761099 -15.383884
v 15.421874 5.402320 15.397766
v 15.421874 5.761099 15.397766
v 15.421874 5.402320 -15.383884
v 15.421874 5.761099 -15.383884
v -15.359778 0.012891 15.397768
v -15.359778 0.371670 15.397768
v -15.359778 0.012891 -15.383886
v -15.359778 0.371670 -15.383886
v 15.421876 0.012891 15.397768
v 15.421876 0.371670 15.397768
v 15.421876 0.012891 -15.383886
v 15.421876 0.371670 -15.383886
v -15.083921 -0.214633 14.858043
v -15.083921 6.122301 14.858043
v -15.083921 -0.214633 14.269104
v -15.083921 6.122301 14.269104
v 15.083922 -0.214633 14.858043
v 15.083922 6.122301 14.858043
v 15.083922 -0.214633 14.269104
v 15.083922 6.122301 14.269104
v -15.083921 -0.214633 -14.180352
v -15.083921 6.122301 -14.180352
v -15.083921 -0.214633 -14.769291
v -15.083921 6.122301 -14.769291
v 15.083922 -0.214633 -14.180352
v 15.083922 6.122301 -14.180352
v 15.083922 -0.214633 -14.769291
v 15.083922 6.122301 -14.769291
v 14.883895 -0.214633 14.967574
v 14.883895 6.122301 14.967574
v 14.294955 -0.214633 14.967574
v 14.294955 6.122301 14.967574
v 14.883894 -0.214633 -15.200270
v 14.883894 6.122301 -15.200270
v 14.294954 -0.214633 -15.200270
v 14.294954 6.122301 -15.200270
v -14.504262 -0.152807 -5.568346
v -14.504262 6.060474 -5.568346
v -15.092262 -0.152807 -5.568346
v -15.092262 6.060474 -5.568346
v -14.504262 -0.152807 -14.729546
v -14.504262 6.060474 -14.729546
v -15.092262 -0.152807 -14.729546
v -15.092262 6.060474 -14.729546
v -14.503792 -0.214633 14.988686
v -14.503792 6.122301 14.988686
v -15.092731 -0.214633 14.988686
v -15.092731 6.122301 14.988686
v -14.503793 -0.214633 -2.450875
v -14.503793 6.122301 -2.450875
v -15.092732 -0.214633 -2.450875
v -15.092732 6.122301 -2.450875
v -15.092060 -0.152807 -6.255623
v -15.092060 6.060474 -6.255623
v -15.092060 -0.152807 -6.843624
v -15.092060 6.060474 -6.843624
v -5.930860 -0.152807 -6.255623
v -5.930860 6.060474 -6.255623
v -5.930860 -0.152807 -6.843624
v -5.930860 6.060474 -6.843624
v -14.504262 -0.152807 -5.568346
v -14.504262 6.060474 -5.568346
v -15.092262 -0.152807 -5.568346
v -15.092262 6.060474 -5.568346
v -14.504262 -0.152807 -14.729546
v -14.504262 6.060474 -14.729546
v -15.092262 -0.152807 -14.729546
v -15.092262 6.060474 -14.729546
v -15.092060 -0.152807 -1.211923
v -15.092060 6.060474 -1.211923
v -15.092060 -0.152807 -1.799923
v -15.092060 6.060474 -1.799923
v -5.930860 -0.152807 -1.211923
v -5.930860 6.060474 -1.211923
v -5.930860 -0.152807 -1.799923
v -5.930860 6.060474 -1.799923
v -5.451527 -0.214633 11.460335
v -5.451527 6.122301 11.460335
v -6.040467 -0.214633 11.460335
v -6.040467 6.122301 11.460335
v -5.451527 -0.214633 -1.807890
v -5.451527 6.122301 -1.807890
v -6.040467 -0.214633 -1.807890
v -6.040467 6.122301 -1.807890
v 0.782428 -0.214633 14.515981
v 0.782428 6.122301 14.515981
v 0.193488 -0.214633 14.515981
v 0.193488 6.122301 14.515981
v 0.782427 -0.214633 -0.227269
v 0.782427 6.122301 -0.227269
v 0.193488 -0.214633 -0.227269
v 0.193488 6.122301 -0.227269
v -5.852489 -0.152807 -6.263158
v -5.852489 6.060474 -6.263158
v -6.440488 -0.152807 -6.263158
v -6.440488 6.060474 -6.263158
v -5.852489 -0.152807 -11.856944
v -5.852489 6.060474 -11.856944
v -6.440489 -0.152807 -11.856944
v -6.440489 6.060474 -11.856944
v 0.782428 -0.214633 -4.490317
v 0.782428 6.122301 -4.490317
v 0.193488 -0.214633 -4.490317
v 0.193488 6.122301 -4.490317
v 0.782428 -0.214633 -14.644026
v 0.782428 6.122301 -14.644026
v 0.193488 -0.214633 -14.644026
v 0.193488 6.122301 -14.644026
v -15.063220 -0.287153 -0.909989
v -15.063220 5.926128 -0.909989
v -15.063220 -0.287153 -1.497989
v -15.063220 5.926128 -1.497989
v -5.902020 -0.287153 -0.909989
v -5.902020 5.926128 -0.909989
v -5.902020 -0.287153 -1.497989
v -5.902020 5.926128 -1.497989
v -14.392097 -0.225182 14.540645
v -14.392097 6.111753 14.540645
v -14.981037 -0.225182 14.540645
v -14.981037 6.111753 14.540645
v -14.392098 -0.225182 -1.225476
v -14.392098 6.111753 -1.225476
v -14.981038 -0.225182 -1.225476
v -14.981038 6.111753 -1.225476
v -5.539086 -0.225182 11.420221
v -5.539086 6.111753 11.420221
v -6.128026 -0.225182 11.420221
v -6.128026 6.111753 11.420221
v -5.539086 -0.225182 -1.431989
v -5.539086 6.111753 -1.431989
v -6.128026 -0.225182 -1.431989
v -6.128026 6.111753 -1.431989
v -15.063220 -0.099598 14.807006
v -15.063220 6.113684 14.807006
v -15.063220 -0.099598 14.219007
v -15.063220 6.113684 14.219007
v -5.902020 -0.099598 14.807006
v -5.902020 6.113684 14.807006
v -5.902020 -0.099598 14.219007
v -5.902020 6.113684 14.219007
v -14.654961 -0.152807 -6.539286
v -14.654961 6.060474 -6.539286
v -14.654961 -0.152807 -7.127286
v -14.654961 6.060474 -7.127286
v -6.367959 -0.152807 -6.539286
v -6.367959 6.060474 -6.539286
v -6.367959 -0.152807 -7.127286
v -6.367959 6.060474 -7.127286
v -14.275812 -0.152807 -6.456292
v -14.275812 6.060474 -6.456292
v -14.555329 -0.152807 -6.456292
v -14.555329 6.060474 -6.456292
v -14.275812 -0.152807 -14.523935
v -14.275812 6.060474 -14.523935
v -14.555329 -0.152807 -14.523935
v -14.555329 6.060474 -14.523935
v -14.558638 -0.152807 -14.173759
v -14.558638 6.060474 -14.173759
v -14.558638 -0.152807 -14.761759
v -14.558638 6.060474 -14.761759
v -6.464283 -0.152807 -14.173759
v -6.464283 6.060474 -14.173759
v -6.464283 -0.152807 -14.761759
v -6.464283 6.060474 -14.761759
v -5.870089 -0.152807 -7.098081
v -5.870089 6.060474 -7.098081
v -6.442719 -0.152807 -7.098081
v -6.442719 6.060474 -7.098081
v -5.870089 -0.152807 -11.840662
v -5.870089 6.060474 -11.840662
v -6.442719 -0.152807 -11.840662
v -6.442719 6.060474 -11.840662
v 0.589931 -0.214633 -14.077177
v 0.589931 6.122301 -14.077177
v 0.589931 -0.214633 -14.666117
v 0.589931 6.122301 -14.666117
v 14.836600 -0.214633 -14.077177
v 14.836600 6.122301 -14.077177
v 14.836600 -0.214633 -14.666117
v 14.836600 6.122301 -14.666117
v 14.714980 -0.214633 14.801570
v 14.714980 6.122301 14.801570
v 14.126040 -0.214633 14.801570
v 14.126040 6.122301 14.801570
v 14.714979 -0.214633 -15.366274
v 14.714979 6.122301 -15.366274
v 14.126040 -0.214633 -15.366274
v 14.126040 6.122301 -15.366274
v 0.589931 -0.214633 14.748446
v 0.589931 6.122301 14.748446
v 0.589931 -0.214633 14.159507
v 0.589931 6.122301 14.159507
v 14.836600 -0.214633 14.748446
v 14.836600 6.122301 14.748446
v 14.836600 -0.214633 14.159507
v 14.836600 6.122301 14.159507
v 0.589931 -0.214633 14.748446
v 0.589931 6.122301 14.748446
v 0.589931 -0.214633 14.159507
v 0.589931 6.122301 14.159507
v 14.836600 -0.214633 14.748446
v 14.836600 6.122301 14.748446
v 14.836600 -0.214633 14.159507
v 14.836600 6.122301 14.159507
v 0.859156 -0.214633 14.693541
v 0.859156 6.122301 14.693541
v 0.270216 -0.214633 14.693541
v 0.270216 6.122301 14.693541
v 0.859155 -0.214633 -0.233097
v 0.859155 6.122301 -0.233097
v 0.270215 -0.214633 -0.233097
v 0.270215 6.122301 -0.233097
v 0.859156 -0.214633 -4.576609
v 0.859156 6.122301 -4.576609
v 0.270216 -0.214633 -4.576609
v 0.270216 6.122301 -4.576609
v 0.859155 -0.214633 -14.663940
v 0.859155 6.122301 -14.663940
v 0.270216 -0.214633 -14.663940
v 0.270216 6.122301 -14.663940
vt 0.375000 0.000000
vt 0.625000 0.000000
vt 0.625000 0.250000
vt 0.375000 0.250000
vt 0.625000 0.500000
vt 0.375000 0.500000
vt 0.625000 0.750000
vt 0.375000 0.750000
vt 0.625000 1.000000
vt 0.375000 1.000000
vt 0.125000 0.500000
vt 0.125000 0.750000
vt 0.875000 0.500000
vt 0.875000 0.750000
vt 0.375000 0.000000
vt 0.625000 0.000000
vt 0.625000 0.250000
vt 0.375000 0.250000
vt 0.625000 0.500000
vt 0.375000 0.500000
vt 0.625000 0.750000
vt 0.375000 0.750000
vt 0.625000 1.000000
vt 0.375000 1.000000
vt 0.125000 0.500000
vt 0.125000 0.750000
vt 0.875000 0.500000
vt 0.875000 0.750000
vt 0.375000 0.000000
vt 0.625000 0.000000
vt 0.625000 0.250000
vt 0.375000 0.250000
vt 0.625000 0.500000
vt 0.375000 0.500000
vt 0.625000 0.750000
vt 0.375000 0.750000
vt 0.625000 1.000000
vt 0.375000 1.000000
vt 0.125000 0.500000
vt 0.125000 0.750000
vt 0.875000 0.500000
vt 0.875000 0.750000
vt 0.375000 0.000000
vt 0.625000 0.000000
vt 0.625000 0.250000
vt 0.375000 0.250000
vt 0.625000 0.500000
vt 0.375000 0.500000
vt 0.625000 0.750000
vt 0.375000 0.750000
vt 0.625000 1.000000
vt 0.375000 1.000000
vt 0.125000 0.500000
vt 0.125000 0.750000
vt 0.875000 0.500000
vt 0.875000 0.750000
vt 0.375000 0.000000
vt 0.625000 0.000000
vt 0.625000 0.250000
vt 0.375000 0.250000
vt 0.625000 0.500000
vt 0.375000 0.500000
vt 0.625000 0.750000
vt 0.375000 0.750000
vt 0.625000 1.000000
vt 0.375000 1.000000
vt 0.125000 0.500000
vt 0.125000 0.750000
vt 0.875000 0.500000
vt 0.875000 0.750000
vt 0.375000 0.000000
vt 0.625000 0.000000
vt 0.625000 0.250000
vt 0.375000 0.250000
vt 0.625000 0.500000
vt 0.375000 0.500000
vt 0.625000 0.750000
vt 0.375000 0.750000
vt 0.625000 1.000000
vt 0.375000 1.000000
vt 0.125000 0.500000
vt 0.125000 0.750000
vt 0.875000 0.500000
vt 0.875000 0.750000
vt 0.375000 0.000000
vt 0.625000 0.000000
vt 0.625000 0.250000
vt 0.375000 0.250000
vt 0.625000 0.500000
vt 0.375000 0.500000
vt 0.625000 0.750000
vt 0.375000 0.750000
vt 0.625000 1.000000
vt 0.375000 1.000000
vt 0.125000 0.500000
vt 0.125000 0.750000
vt 0.875000 0.500000
vt 0.875000 0.750000
vt 0.375000 0.000000
vt 0.625000 0.000000
vt 0.625000 0.250000
vt 0.375000 0.250000
vt 0.625000 0.500000
vt 0.375000 0.500000
vt 0.625000 0.750000
vt 0.375000 0.750000
vt 0.625000 1.000000
vt 0.375000 1.000000
vt 0.125000 0.500000
vt 0.125000 0.750000
vt 0.875000 0.500000
vt 0.875000 0.750000
vt 0.375000 0.000000
vt 0.625000 0.000000
vt 0.625000 0.250000
vt 0.375000 0.250000
vt 0.625000 0.500000
vt 0.375000 0.500000
vt 0.625000 0.750000
vt 0.375000 0.750000
vt 0.625000 1.000000
vt 0.375000 1.000000
vt 0.125000 0.500000
vt 0.125000 0.750000
vt 0.875000 0.500000
vt 0.875000 0.750000
vt 0.375000 0.000000
vt 0.625000 0.000000
vt 0.625000 0.250000
vt 0.375000 0.250000
vt 0.625000 0.500000
vt 0.375000 0.500000
vt 0.625000 0.750000
vt 0.375000 0.750000
vt 0.625000 1.000000
vt 0.375000 1.000000
vt 0.125000 0.500000
vt 0.125000 0.750000
vt 0.875000 0.500000
vt 0.875000 0.750000
vt 0.375000 0.000000
vt 0.625000 0.000000
vt 0.625000 0.250000
vt 0.375000 0.250000
vt 0.625000 0.500000
vt 0.375000 0.500000
vt 0.625000 0.750000
vt 0.375000 0.750000
vt 0.625000 1.000000
vt 0.375000 1.000000
vt 0.125000 0.500000
vt 0.125000 0.750000
vt 0.875000 0.500000
vt 0.875000 0.750000
vt 0.375000 0.000000
vt 0.625000 0.000000
vt 0.625000 0.250000
vt 0.375000 0.250000
vt 0.625000 0.500000
vt 0.375000 0.500000
vt 0.625000 0.750000
vt 0.375000 0.750000
vt 0.625000 1.000000
vt 0.375000 1.000000
vt 0.125000 0.500000
vt 0.125000 0.750000
vt 0.875000 0.500000
vt 0.875000 0.750000
vt 0.375000 0.000000
vt 0.625000 0.000000
vt 0.625000 0.250000
vt 0.375000 0.250000
vt 0.625000 0.500000
vt 0.375000 0.500000
vt 0.625000 0.750000
vt 0.375000 0.750000
vt 0.625000 1.000000
vt 0.375000 1.000000
vt 0.125000 0.500000
vt 0.125000 0.750000
vt 0.875000 0.500000
vt 0.875000 0.750000
vt 0.375000 0.000000
vt 0.625000 0.000000
vt 0.625000 0.250000
vt 0.375000 0.250000
vt 0.625000 0.500000
vt 0.375000 0.500000
vt 0.625000 0.750000
vt 0.375000 0.750000
vt 0.625000 1.000000
vt 0.375000 1.000000
vt 0.125000 0.500000
vt 0.125000 0.750000
vt 0.875000 0.500000
vt 0.875000 0.750000
vt 0.375000 0.000000
vt 0.625000 0.000000
vt 0.625000 0.250000
vt 0.375000 0.250000
vt 0.625000 0.500000
vt 0.375000 0.500000
vt 0.625000 0.750000
vt 0.375000 0.750000
vt 0.625000 1.000000
vt 0.375000 1.000000
vt 0.125000 0.500000
vt 0.125000 0.750000
vt 0.875000 0.500000
vt 0.875000 0.750000
vt 0.375000 0.000000
vt 0.625000 0.000000
vt 0.625000 0.250000
vt 0.375000 0.250000
vt 0.625000 0.500000
vt 0.375000 0.500000
vt 0.625000 0.750000
vt 0.375000 0.750000
vt 0.625000 1.000000
vt 0.375000 1.000000
vt 0.125000 0.500000
vt 0.125000 0.750000
vt 0.875000 0.500000
vt 0.875000 0.750000
vt 0.375000 0.000000
vt 0.625000 0.000000
vt 0.625000 0.250000
vt 0.375000 0.250000
vt 0.625000 0.500000
vt 0.375000 0.500000
vt 0.625000 0.750000
vt 0.375000 0.750000
vt 0.625000 1.000000
vt 0.375000 1.000000
vt 0.125000 0.500000
vt 0.125000 0.750000
vt 0.875000 0.500000
vt 0.875000 0.750000
vt 0.375000 0.000000
vt 0.625000 0.000000
vt 0.625000 0.250000
vt 0.375000 0.250000
vt 0.625000 0.500000
vt 0.375000 0.500000
vt 0.625000 0.750000
vt 0.375000 0.750000
vt 0.625000 1.000000
vt 0.375000 1.000000
vt 0.125000 0.500000
vt 0.125000 0.750000
vt 0.875000 0.500000
vt 0.875000 0.750000
vt 0.375000 0.000000
vt 0.625000 0.000000
vt 0.625000 0.250000
vt 0.375000 0.250000
vt 0.625000 0.500000
vt 0.375000 0.500000
vt 0.625000 0.750000
vt 0.375000 0.750000
vt 0.625000 1.000000
vt 0.375000 1.000000
vt 0.125000 0.500000
vt 0.125000 0.750000
vt 0.875000 0.500000
vt 0.875000 0.750000
vt 0.375000 0.000000
vt 0.625000 0.000000
vt 0.625000 0.250000
vt 0.375000 0.250000
vt 0.625000 0.500000
vt 0.375000 0.500000
vt 0.625000 0.750000
vt 0.375000 0.750000
vt 0.625000 1.000000
vt 0.375000 1.000000
vt 0.125000 0.500000
vt 0.125000 0.750000
vt 0.875000 0.500000
vt 0.875000 0.750000
vt 0.375000 0.000000
vt 0.625000 0.000000
vt 0.625000 0.250000
vt 0.375000 0.250000
vt 0.625000 0.500000
vt 0.375000 0.500000
vt 0.625000 0.750000
vt 0.375000 0.750000
vt 0.625000 1.000000
vt 0.375000 1.000000
vt 0.125000 0.500000
vt 0.125000 0.750000
vt 0.875000 0.500000
vt 0.875000 0.750000
vt 0.375000 0.000000
vt 0.625000 0.000000
vt 0.625000 0.250000
vt 0.375000 0.250000
vt 0.625000 0.500000
vt 0.375000 0.500000
vt 0.625000 0.750000
vt 0.375000 0.750000
vt 0.625000 1.000000
vt 0.375000 1.000000
vt 0.125000 0.500000
vt 0.125000 0.750000
vt 0.875000 0.500000
vt 0.875000 0.750000
vt 0.375000 0.000000
vt 0.625000 0.000000
vt 0.625000 0.250000
vt 0.375000 0.250000
vt 0.625000 0.500000
vt 0.375000 0.500000
vt 0.625000 0.750000
vt 0.375000 0.750000
vt 0.625000 1.000000
vt 0.375000 1.000000
vt 0.125000 0.500000
vt 0.125000 0.750000
vt 0.875000 0.500000
vt 0.875000 0.750000
vt 0.375000 0.000000
vt 0.625000 0.000000
vt 0.625000 0.250000
vt 0.375000 0.250000
vt 0.625000 0.500000
vt 0.375000 0.500000
vt 0.625000 0.750000
vt 0.375000 0.750000
vt 0.625000 1.000000
vt 0.375000 1.000000
vt 0.125000 0.500000
vt 0.125000 0.750000
vt 0.875000 0.500000
vt 0.875000 0.750000
vt 0.375000 0.000000
vt 0.625000 0.000000
vt 0.625000 0.250000
vt 0.375000 0.250000
vt 0.625000 0.500000
vt 0.375000 0.500000
vt 0.625000 0.750000
vt 0.375000 0.750000
vt 0.625000 1.000000
vt 0.375000 1.000000
vt 0.125000 0.500000
vt 0.125000 0.750000
vt 0.875000 0.500000
vt 0.875000 0.750000
vt 0.375000 0.000000
vt 0.625000 0.000000
vt 0.625000 0.250000
vt 0.375000 0.250000
vt 0.625000 0.500000
vt 0.375000 0.500000
vt 0.625000 0.750000
vt 0.375000 0.750000
vt 0.625000 1.000000
vt 0.375000 1.000000
vt 0.125000 0.500000
vt 0.125000 0.750000
vt 0.875000 0.500000
vt 0.875000 0.750000
vt 0.375000 0.000000
vt 0.625000 0.000000
vt 0.625000 0.250000
vt 0.375000 0.250000
vt 0.625000 0.500000
vt 0.375000 0.500000
vt 0.625000 0.750000
vt 0.375000 0.750000
vt 0.625000 1.000000
vt 0.375000 1.000000
vt 0.125000 0.500000
vt 0.125000 0.750000
vt 0.875000 0.500000
vt 0.875000 0.750000
vt 0.375000 0.000000
vt 0.625000 0.000000
vt 0.625000 0.250000
vt 0.375000 0.250000
vt 0.625000 0.500000
vt 0.375000 0.500000
vt 0.625000 0.750000
vt 0.375000 0.750000
vt 0.625000 1.000000
vt 0.375000 1.000000
vt 0.125000 0.500000
vt 0.125000 0.750000
vt 0.875000 0.500000
vt 0.875000 0.750000
vn -1.0000 0.0000 0.0000
vn 0.0000 0.0000 -1.0000
vn 1.0000 0.0000 0.0000
vn 0.0000 0.0000 1.0000
vn 0.0000 -1.0000 0.0000
vn 0.0000 1.0000 0.0000
usemtl Material.001
s off
f 1/1/1 2/2/1 4/3/1 3/4/1
f 3/4/2 4/3/2 8/5/2 7/6/2
f 7/6/3 8/5/3 6/7/3 5/8/3
f 5/8/4 6/7/4 2/9/4 1/10/4
f 3/11/5 7/6/5 5/8/5 1/12/5
f 8/5/6 4/13/6 2/14/6 6/7/6
f 9/15/1 10/16/1 12/17/1 11/18/1
f 11/18/2 12/17/2 16/19/2 15/20/2
f 15/20/3 16/19/3 14/21/3 13/22/3
f 13/22/4 14/21/4 10/23/4 9/24/4
f 11/25/5 15/20/5 13/22/5 9/26/5
f 16/19/6 12/27/6 10/28/6 14/21/6
f 17/29/1 18/30/1 20/31/1 19/32/1
f 19/32/2 20/31/2 24/33/2 23/34/2
f 23/34/3 24/33/3 22/35/3 21/36/3
f 21/36/4 22/35/4 18/37/4 17/38/4
f 19/39/5 23/34/5 21/36/5 17/40/5
f 24/33/6 20/41/6 18/42/6 22/35/6
f 25/43/1 26/44/1 28/45/1 27/46/1
f 27/46/2 28/45/2 32/47/2 31/48/2
f 31/48/3 32/47/3 30/49/3 29/50/3
f 29/50/4 30/49/4 26/51/4 25/52/4
f 27/53/5 31/48/5 29/50/5 25/54/5
f 32/47/6 28/55/6 26/56/6 30/49/6
f 33/57/4 34/58/4 36/59/4 35/60/4
f 35/60/1 36/59/1 40/61/1 39/62/1
f 39/62/2 40/61/2 38/63/2 37/64/2
f 37/64/3 38/63/3 34/65/3 33/66/3
f 35/67/5 39/62/5 37/64/5 33/68/5
f 40/61/6 36/69/6 34/70/6 38/63/6
f 41/71/4 42/72/4 44/73/4 43/74/4
f 43/74/1 44/73/1 48/75/1 47/76/1
f 47/76/2 48/75/2 46/77/2 45/78/2
f 45/78/3 46/77/3 42/79/3 41/80/3
f 43/81/5 47/76/5 45/78/5 41/82/5
f 48/75/6 44/83/6 42/84/6 46/77/6
f 49/85/4 50/86/4 52/87/4 51/88/4
f 51/88/1 52/87/1 56/89/1 55/90/1
f 55/90/2 56/89/2 54/91/2 53/92/2
f 53/92/3 54/91/3 50/93/3 49/94/3
f 51/95/5 55/90/5 53/92/5 49/96/5
f 56/89/6 52/97/6 50/98/6 54/91/6
f 57/99/1 58/100/1 60/101/1 59/102/1
f 59/102/2 60/101/2 64/103/2 63/104/2
f 63/104/3 64/103/3 62/105/3 61/106/3
f 61/106/4 62/105/4 58/107/4 57/108/4
f 59/109/5 63/104/5 61/106/5 57/110/5
f 64/103/6 60/111/6 58/112/6 62/105/6
f 65/113/4 66/114/4 68/115/4 67/116/4
f 67/116/1 68/115/1 72/117/1 71/118/1
f 71/118/2 72/117/2 70/119/2 69/120/2
f 69/120/3 70/119/3 66/121/3 65/122/3
f 67/123/5 71/118/5 69/120/5 65/124/5
f 72/117/6 68/125/6 66/126/6 70/119/6
f 73/127/1 74/128/1 76/129/1 75/130/1
f 75/130/2 76/129/2 80/131/2 79/132/2
f 79/132/3 80/131/3 78/133/3 77/134/3
f 77/134/4 78/133/4 74/135/4 73/136/4
f 75/137/5 79/132/5 77/134/5 73/138/5
f 80/131/6 76/139/6 74/140/6 78/133/6
f 81/141/4 82/142/4 84/143/4 83/144/4
f 83/144/1 84/143/1 88/145/1 87/146/1
f 87/146/2 88/145/2 86/147/2 85/148/2
f 85/148/3 86/147/3 82/149/3 81/150/3
f 83/151/5 87/146/5 85/148/5 81/152/5
f 88/145/6 84/153/6 82/154/6 86/147/6
f 89/155/4 90/156/4 92/157/4 91/158/4
f 91/158/1 92/157/1 96/159/1 95/160/1
f 95/160/2 96/159/2 94/161/2 93/162/2
f 93/162/3 94/161/3 90/163/3 89/164/3
f 91/165/5 95/160/5 93/162/5 89/166/5
f 96/159/6 92/167/6 90/168/6 94/161/6
f 97/169/4 98/170/4 100/171/4 99/172/4
f 99/172/1 100/171/1 104/173/1 103/174/1
f 103/174/2 104/173/2 102/175/2 101/176/2
f 101/176/3 102/175/3 98/177/3 97/178/3
f 99/179/5 103/174/5 101/176/5 97/180/5
f 104/173/6 100/181/6 98/182/6 102/175/6
f 105/183/4 106/184/4 108/185/4 107/186/4
f 107/186/1 108/185/1 112/187/1 111/188/1
f 111/188/2 112/187/2 110/189/2 109/190/2
f 109/190/3 110/189/3 106/191/3 105/192/3
f 107/193/5 111/188/5 109/190/5 105/194/5
f 112/187/6 108/195/6 106/196/6 110/189/6
usemtl Material.002
f 113/197/1 114/198/1 116/199/1 115/200/1
f 115/200/2 116/199/2 120/201/2 119/202/2
f 119/202/3 120/201/3 118/203/3 117/204/3
f 117/204/4 118/203/4 114/205/4 113/206/4
f 115/207/5 119/202/5 117/204/5 113/208/5
f 120/201/6 116/209/6 114/210/6 118/203/6
f 121/211/4 122/212/4 124/213/4 123/214/4
f 123/214/1 124/213/1 128/215/1 127/216/1
f 127/216/2 128/215/2 126/217/2 125/218/2
f 125/218/3 126/217/3 122/219/3 121/220/3
f 123/221/5 127/216/5 125/218/5 121/222/5
f 128/215/6 124/223/6 122/224/6 126/217/6
usemtl Material.004
f 129/225/4 130/226/4 132/227/4 131/228/4
f 131/228/1 132/227/1 136/229/1 135/230/1
f 135/230/2 136/229/2 134/231/2 133/232/2
f 133/232/3 134/231/3 130/233/3 129/234/3
f 131/235/5 135/230/5 133/232/5 129/236/5
f 136/229/6 132/237/6 130/238/6 134/231/6
usemtl Material.005
f 137/239/1 138/240/1 140/241/1 139/242/1
f 139/242/2 140/241/2 144/243/2 143/244/2
f 143/244/3 144/243/3 142/245/3 141/246/3
f 141/246/4 142/245/4 138/247/4 137/248/4
f 139/249/5 143/244/5 141/246/5 137/250/5
f 144/243/6 140/251/6 138/252/6 142/245/6
usemtl Material.006
f 145/253/1 146/254/1 148/255/1 147/256/1
f 147/256/2 148/255/2 152/257/2 151/258/2
f 151/258/3 152/257/3 150/259/3 149/260/3
f 149/260/4 150/259/4 146/261/4 145/262/4
f 147/263/5 151/258/5 149/260/5 145/264/5
f 152/257/6 148/265/6 146/266/6 150/259/6
f 153/267/4 154/268/4 156/269/4 155/270/4
f 155/270/1 156/269/1 160/271/1 159/272/1
f 159/272/2 160/271/2 158/273/2 157/274/2
f 157/274/3 158/273/3 154/275/3 153/276/3
f 155/277/5 159/272/5 157/274/5 153/278/5
f 160/271/6 156/279/6 154/280/6 158/273/6
usemtl Material.008
f 161/281/1 162/282/1 164/283/1 163/284/1
f 163/284/2 164/283/2 168/285/2 167/286/2
f 167/286/3 168/285/3 166/287/3 165/288/3
f 165/288/4 166/287/4 162/289/4 161/290/4
f 163/291/5 167/286/5 165/288/5 161/292/5
f 168/285/6 164/293/6 162/294/6 166/287/6
usemtl Material.009
f 169/295/4 170/296/4 172/297/4 171/298/4
f 171/298/1 172/297/1 176/299/1 175/300/1
f 175/300/2 176/299/2 174/301/2 173/302/2
f 173/302/3 174/301/3 170/303/3 169/304/3
f 171/305/5 175/300/5 173/302/5 169/306/5
f 176/299/6 172/307/6 170/308/6 174/301/6
usemtl Material.010
f 177/309/1 178/310/1 180/311/1 179/312/1
f 179/312/2 180/311/2 184/313/2 183/314/2
f 183/314/3 184/313/3 182/315/3 181/316/3
f 181/316/4 182/315/4 178/317/4 177/318/4
f 179/319/5 183/314/5 181/316/5 177/320/5
f 184/313/6 180/321/6 178/322/6 182/315/6
usemtl Material.011
f 185/323/4 186/324/4 188/325/4 187/326/4
f 187/326/1 188/325/1 192/327/1 191/328/1
f 191/328/2 192/327/2 190/329/2 189/330/2
f 189/330/3 190/329/3 186/331/3 185/332/3
f 187/333/5 191/328/5 189/330/5 185/334/5
f 192/327/6 188/335/6 186/336/6 190/329/6
usemtl Material.012
f 193/337/1 194/338/1 196/339/1 195/340/1
f 195/340/2 196/339/2 200/341/2 199/342/2
f 199/342/3 200/341/3 198/343/3 197/344/3
f 197/344/4 198/343/4 194/345/4 193/346/4
f 195/347/5 199/342/5 197/344/5 193/348/5
f 200/341/6 196/349/6 194/350/6 198/343/6
usemtl Material.013
f 201/351/1 202/352/1 204/353/1 203/354/1
f 203/354/2 204/353/2 208/355/2 207/356/2
f 207/356/3 208/355/3 206/357/3 205/358/3
f 205/358/4 206/357/4 202/359/4 201/360/4
f 203/361/5 207/356/5 205/358/5 201/362/5
f 208/355/6 204/363/6 202/364/6 206/357/6
usemtl Material.014
f 209/365/4 210/366/4 212/367/4 211/368/4
f 211/368/1 212/367/1 216/369/1 215/370/1
f 215/370/2 216/369/2 214/371/2 213/372/2
f 213/372/3 214/371/3 210/373/3 209/374/3
f 211/375/5 215/370/5 213/372/5 209/376/5
f 216/369/6 212/377/6 210/378/6 214/371/6
usemtl Material.015
f 217/379/4 218/380/4 220/381/4 219/382/4
f 219/382/1 220/381/1 224/383/1 223/384/1
f 223/384/2 224/383/2 222/385/2 221/386/2
f 221/386/3 222/385/3 218/387/3 217/388/3
f 219/389/5 223/384/5 221/386/5 217/390/5
f 224/383/6 220/391/6 218/392/6 222/385/6
